<?xml version="1.0" encoding="UTF-8" standalone="no"?>
<svg
   width="120"
   height="120"
   viewBox="0 0 120 120"
   fill="none"
   version="1.1"
   id="svg4"
   sodipodi:docname="cart.svg"
   inkscape:version="1.4.2 (f4327f4, 2025-05-13)"
   xmlns:inkscape="http://www.inkscape.org/namespaces/inkscape"
   xmlns:sodipodi="http://sodipodi.sourceforge.net/DTD/sodipodi-0.dtd"
   xmlns="http://www.w3.org/2000/svg"
   xmlns:svg="http://www.w3.org/2000/svg">
  <defs
     id="defs4" />
  <sodipodi:namedview
     id="namedview4"
     pagecolor="#ffffff"
     bordercolor="#000000"
     borderopacity="0.25"
     inkscape:showpageshadow="2"
     inkscape:pageopacity="0.0"
     inkscape:pagecheckerboard="0"
     inkscape:deskcolor="#d1d1d1"
     inkscape:zoom="9.725"
     inkscape:cx="60"
     inkscape:cy="59.948586"
     inkscape:window-width="1718"
     inkscape:window-height="1360"
     inkscape:window-x="1713"
     inkscape:window-y="0"
     inkscape:window-maximized="0"
     inkscape:current-layer="svg4" />
  <path
     style="baseline-shift:baseline;display:inline;overflow:visible;vector-effect:none;fill:#000000;stroke-linecap:round;stroke-linejoin:round;enable-background:accumulate;stop-color:#000000;stop-opacity:1;opacity:1"
     d="m 41.25,90 c -4.09768,0 -7.5,3.40232 -7.5,7.5 0,4.09768 3.40232,7.5 7.5,7.5 4.09768,0 7.5,-3.40232 7.5,-7.5 0,-4.09768 -3.40232,-7.5 -7.5,-7.5 z"
     id="path1" />
  <path
     style="baseline-shift:baseline;display:inline;overflow:visible;vector-effect:none;fill:#000000;stroke-linecap:round;stroke-linejoin:round;enable-background:accumulate;stop-color:#000000;stop-opacity:1;opacity:1"
     d="m 93.75,90 c -4.09768,0 -7.5,3.40232 -7.5,7.5 0,4.09768 3.40232,7.5 7.5,7.5 4.09768,0 7.5,-3.40232 7.5,-7.5 0,-4.09768 -3.40232,-7.5 -7.5,-7.5 z"
     id="path2" />
  <path
     style="baseline-shift:baseline;display:inline;overflow:visible;vector-effect:none;fill:#000000;stroke-linecap:round;stroke-linejoin:round;enable-background:accumulate;stop-color:#000000;stop-opacity:1;opacity:1"
     d="M 11.25,15 A 3.75,3.75 0 0 0 7.5,18.75 3.75,3.75 0 0 0 11.25,22.5 H 23.103516 L 33.806641,83.152344 A 3.750375,3.750375 0 0 0 37.5,86.25 h 60 A 3.75,3.75 0 0 0 101.25,82.5 3.75,3.75 0 0 0 97.5,78.75 H 40.646484 L 29.943359,18.097656 A 3.750375,3.750375 0 0 0 26.25,15 Z"
     id="path3" />
  <path
     style="baseline-shift:baseline;display:inline;overflow:visible;vector-effect:none;fill:#000000;stroke-linecap:round;stroke-linejoin:round;enable-background:accumulate;stop-color:#000000;stop-opacity:1;opacity:1"
     d="M 30,26.25 A 3.75,3.75 0 0 0 26.25,30 3.75,3.75 0 0 0 30,33.75 h 70.42578 l -5.999999,30 H 37.5 a 3.75,3.75 0 0 0 -3.75,3.75 3.75,3.75 0 0 0 3.75,3.75 h 58.458984 c 1.299554,8.99e-4 2.562381,-0.449735 3.56836,-1.273438 1.005766,-0.823798 1.696056,-1.973371 1.951176,-3.248046 l 6.75,-33.75 c 0.16467,-0.821019 0.1424,-1.66284 -0.0566,-2.462891 -0.2007,-0.806675 -0.58129,-1.562518 -1.11329,-2.208984 -0.52537,-0.639591 -1.18761,-1.161404 -1.9414,-1.517579 -0.75094,-0.354826 -1.57368,-0.539089 -2.4043,-0.539062 z"
     id="path4" />
</svg>
