<?xml version="1.0" encoding="UTF-8" standalone="no"?>
<svg
   width="37"
   height="37"
   viewBox="0 0 37 37"
   fill="none"
   version="1.1"
   id="svg1"
   sodipodi:docname="close.svg"
   inkscape:version="1.4.2 (f4327f4, 2025-05-13)"
   xmlns:inkscape="http://www.inkscape.org/namespaces/inkscape"
   xmlns:sodipodi="http://sodipodi.sourceforge.net/DTD/sodipodi-0.dtd"
   xmlns="http://www.w3.org/2000/svg"
   xmlns:svg="http://www.w3.org/2000/svg">
  <defs
     id="defs1" />
  <sodipodi:namedview
     id="namedview1"
     pagecolor="#ffffff"
     bordercolor="#000000"
     borderopacity="0.25"
     inkscape:showpageshadow="2"
     inkscape:pageopacity="0.0"
     inkscape:pagecheckerboard="0"
     inkscape:deskcolor="#d1d1d1"
     inkscape:zoom="31.540541"
     inkscape:cx="18.5"
     inkscape:cy="18.5"
     inkscape:window-width="3440"
     inkscape:window-height="1369"
     inkscape:window-x="-8"
     inkscape:window-y="-8"
     inkscape:window-maximized="1"
     inkscape:current-layer="svg1" />
  <path
     style="baseline-shift:baseline;display:inline;overflow:visible;vector-effect:none;fill:#d9d9d9;stroke-linecap:round;stroke-linejoin:round;enable-background:accumulate;stop-color:#000000;stop-opacity:1;opacity:1"
     d="m 0.5859375,0.5859375 a 2,2 0 0 0 0,2.828125 L 15.503906,18.332031 0.5859375,33.251953 a 2,2 0 0 0 0,2.828125 2,2 0 0 0 2.828125,0 L 18.332031,21.160156 33.251953,36.080078 a 2,2 0 0 0 2.828125,0 2,2 0 0 0 0,-2.828125 L 21.160156,18.332031 36.080078,3.4140625 a 2,2 0 0 0 0,-2.828125 2,2 0 0 0 -2.828125,0 L 18.332031,15.503906 3.4140625,0.5859375 a 2,2 0 0 0 -2.828125,0 z"
     id="path1" />
</svg>
