<?xml version="1.0" encoding="UTF-8" standalone="no"?>
<svg
   width="72"
   height="72"
   viewBox="0 0 72 72"
   fill="none"
   version="1.1"
   id="svg1"
   sodipodi:docname="telegram.svg"
   inkscape:version="1.4.2 (f4327f4, 2025-05-13)"
   xmlns:inkscape="http://www.inkscape.org/namespaces/inkscape"
   xmlns:sodipodi="http://sodipodi.sourceforge.net/DTD/sodipodi-0.dtd"
   xmlns="http://www.w3.org/2000/svg"
   xmlns:svg="http://www.w3.org/2000/svg">
  <defs
     id="defs1" />
  <sodipodi:namedview
     id="namedview1"
     pagecolor="#ffffff"
     bordercolor="#000000"
     borderopacity="0.25"
     inkscape:showpageshadow="2"
     inkscape:pageopacity="0.0"
     inkscape:pagecheckerboard="0"
     inkscape:deskcolor="#d1d1d1"
     inkscape:zoom="16.208333"
     inkscape:cx="36"
     inkscape:cy="36"
     inkscape:window-width="3440"
     inkscape:window-height="1369"
     inkscape:window-x="-8"
     inkscape:window-y="-8"
     inkscape:window-maximized="1"
     inkscape:current-layer="svg1" />
  <g
     id="path1"
     style="opacity:1">
    <path
       style="baseline-shift:baseline;display:inline;overflow:visible;vector-effect:none;fill:#e65c10;enable-background:accumulate;stop-color:#000000;stop-opacity:1"
       d="M 51.4351,22.2104 17.7744,35.2438 c -2.2972,0.9264 -2.2839,2.2132 -0.4215,2.787 l 8.642,2.7069 19.9952,-12.6673 c 0.9455,-0.5776 1.8093,-0.2669 1.0993,0.366 L 30.8893,43.1168 h -0.0038 l 0.0038,0.0019 -0.5961,8.9444 c 0.8733,0 1.2587,-0.4023 1.7485,-0.8769 l 4.1976,-4.0986 8.7313,6.4757 c 1.61,0.8903 2.7662,0.4328 3.1667,-1.4964 L 53.869,24.944 c 0.5866,-2.3619 -0.898,-3.4313 -2.4339,-2.7336 z"
       id="path2" />
    <path
       style="baseline-shift:baseline;display:inline;overflow:visible;vector-effect:none;fill:#e65c10;enable-background:accumulate;stop-color:#000000;stop-opacity:1"
       d="m 52.642578,21.275391 c -0.497182,-0.05809 -1.026493,0.02887 -1.517578,0.251953 l -33.626953,13.019531 -0.0039,0.002 c -0.630388,0.254219 -1.129854,0.538124 -1.513672,0.878906 -0.383819,0.340783 -0.672161,0.763633 -0.722656,1.267578 -0.0505,0.503946 0.186776,1.001205 0.535156,1.332032 0.348379,0.330826 0.799101,0.554102 1.339843,0.720703 l 8.970704,2.808594 17.919921,-11.353516 -13.423828,12.164062 h 0.285157 l -0.333985,1.419922 -0.443359,-0.220703 -0.615235,9.246094 h 0.800782 c 1.103633,0 1.792596,-0.623864 2.271484,-1.087891 l 3.742188,-3.654297 8.257812,6.125 0.04297,0.02344 c 0.919144,0.50827 1.874021,0.715284 2.708984,0.337891 0.834963,-0.377394 1.327639,-1.244204 1.554688,-2.337891 L 54.597656,25.125 c 0.335359,-1.350295 0.104258,-2.522764 -0.626953,-3.232422 -0.365605,-0.354829 -0.830943,-0.559101 -1.328125,-0.617187 z m -0.896484,1.617187 c 0.553729,-0.251538 0.931273,-0.16492 1.179687,0.07617 0.248414,0.241092 0.466086,0.783317 0.214844,1.794922 l -0.002,0.01172 -5.736328,27.138671 c -0.173452,0.835514 -0.457363,1.16431 -0.703125,1.275391 -0.243263,0.109952 -0.673008,0.09141 -1.351563,-0.279297 l -9.175781,-6.80664 -4.654297,4.546875 c -0.159813,0.154973 -0.28595,0.116282 -0.392578,0.21289 L 31.617187,43.46875 47.587891,28.996094 c 0.256641,-0.228772 0.494953,-0.490158 0.511718,-0.9375 0.0084,-0.223671 -0.07751,-0.479103 -0.220703,-0.650391 -0.143191,-0.171288 -0.317426,-0.264177 -0.474609,-0.318359 -0.628732,-0.21673 -1.194176,-0.03311 -1.804688,0.339843 l -0.0059,0.0039 -19.707031,12.484375 -8.310547,-2.603516 h -0.002 c -0.390458,-0.120299 -0.64192,-0.27422 -0.748047,-0.375 -0.106127,-0.10078 -0.0767,-0.09042 -0.07617,-0.0957 5.29e-4,-0.0053 0.02303,-0.113995 0.224609,-0.292969 0.201576,-0.178973 0.561866,-0.402347 1.080078,-0.611328 L 51.726562,22.902344 Z"
       id="path3" />
  </g>
  <path
     style="baseline-shift:baseline;display:inline;overflow:visible;vector-effect:none;fill:#e65c10;enable-background:accumulate;stop-color:#000000;stop-opacity:1;opacity:1"
     d="M 36,0 C 16.135516,0 0,16.135516 0,36 0,55.864484 16.135516,72 36,72 55.864484,72 72,55.864484 72,36 72,16.135516 55.864484,0 36,0 Z m 0,3 C 54.243164,3 69,17.756836 69,36 69,54.243164 54.243164,69 36,69 17.756836,69 3,54.243164 3,36 3,17.756836 17.756836,3 36,3 Z"
     id="circle1" />
</svg>
