<svg width="80" height="80" viewBox="0 0 80 80" fill="none" xmlns="http://www.w3.org/2000/svg">
<g clip-path="url(#clip0_2013_6295)">
<path d="M40 4.76625e-07C46.1526 0.00213645 52.2217 1.42353 57.7354 4.15363C63.2491 6.88373 68.0587 10.8489 71.7901 15.7409C75.5215 20.6328 78.0742 26.3195 79.2495 32.3588C80.4248 38.3981 80.1911 44.6271 78.5667 50.5613C76.9422 56.4956 73.9707 61.9751 69.8833 66.5737C65.7958 71.1723 60.7027 74.766 55 77.0754C49.2972 79.3847 43.1386 80.3474 37.0032 79.8886C30.8677 79.4298 24.9208 77.5618 19.625 74.43L3.29 79.87C2.84992 80.016 2.3779 80.0367 1.92671 79.9299C1.47552 79.823 1.06294 79.5928 0.735078 79.2649C0.407215 78.9371 0.17699 78.5245 0.0701365 78.0733C-0.0367173 77.6221 -0.0159899 77.1501 0.130002 76.71L5.575 60.38C1.97828 54.3057 0.0531699 47.3877 -0.00482208 40.3286C-0.062814 33.2695 1.74838 26.3208 5.24482 20.1882C8.74125 14.0556 13.7984 8.95757 19.9026 5.41181C26.0068 1.86606 32.9407 -0.00108913 40 4.76625e-07ZM40 5C33.7344 4.99907 27.5833 6.68014 22.1891 9.86769C16.7948 13.0553 12.3552 17.6324 9.3336 23.1213C6.312 28.6103 4.81928 34.8097 5.01126 41.0724C5.20324 47.3351 7.07288 53.4315 10.425 58.725C10.6237 59.0385 10.7502 59.3923 10.7952 59.7607C10.8401 60.1291 10.8025 60.5029 10.685 60.855L6.455 73.55L19.155 69.32C19.5064 69.2033 19.8792 69.1661 20.2467 69.211C20.6142 69.256 20.9672 69.382 21.28 69.58C25.8672 72.4814 31.0664 74.2761 36.4666 74.8223C41.8668 75.3685 47.32 74.6513 52.3953 72.7274C57.4706 70.8034 62.0289 67.7254 65.71 63.7366C69.391 59.7478 72.0939 54.9576 73.6051 49.7444C75.1162 44.5313 75.3942 39.0381 74.4171 33.699C73.4399 28.36 71.2344 23.3213 67.9749 18.9813C64.7153 14.6413 60.491 11.1188 55.6359 8.69229C50.7807 6.26578 45.4278 5.00172 40 5ZM26.07 20.02C26.725 20.02 27.38 20.02 27.95 20.045C28.55 20.085 29.36 19.795 30.165 21.86C30.985 23.985 32.955 29.22 33.2 29.745C33.45 30.27 33.61 30.895 33.29 31.6C32.96 32.31 32.79 32.755 32.3 33.365C31.81 33.99 31.27 34.75 30.82 35.22C30.33 35.755 29.815 36.32 30.395 37.385C30.96 38.44 32.945 41.925 35.865 44.73C39.63 48.35 42.795 49.475 43.785 50C44.765 50.53 45.345 50.43 45.91 49.735C46.49 49.035 48.365 46.64 49.025 45.575C49.68 44.52 50.34 44.685 51.24 45.05C52.14 45.4 56.985 47.96 57.965 48.485C58.955 49.025 59.615 49.295 59.855 49.735C60.105 50.185 60.105 52.305 59.29 54.775C58.465 57.255 54.54 59.52 52.645 59.825C50.945 60.09 48.795 60.2 46.44 59.395C44.5322 58.7531 42.661 58.007 40.835 57.16C30.96 52.56 24.51 41.86 24.02 41.16C23.525 40.46 20 35.41 20 30.19C20 24.98 22.54 22.41 23.44 21.355C23.7553 20.9554 24.154 20.6294 24.6082 20.3997C25.0624 20.17 25.5613 20.0371 26.07 20.02Z" fill="black"/>
</g>
<defs>
<clipPath id="clip0_2013_6295">
<rect width="80" height="80" fill="white"/>
</clipPath>
</defs>
</svg>
