<svg width="87" height="87" viewBox="0 0 87 87" fill="none" xmlns="http://www.w3.org/2000/svg">
<path d="M62.4077 59.6714H86.0664V51.3908H72.4626V47.2505H86.0664V39.5615H72.4626V35.4212H86.0664V27.1406H62.4077V59.6714ZM43.8243 38.6399L37.566 27.1406H27.5111V33.2676C27.0296 33.0435 25.894 32.6277 25.1452 32.4638V27.1406H16.2732C7.24086 27.1406 0.000105979 34.3595 0.000105979 43.3906C-0.00762747 45.5302 0.407952 47.6501 1.22292 49.6283C2.03788 51.6066 3.23613 53.4041 4.74866 54.9174C6.26119 56.4306 8.05813 57.6297 10.036 58.4456C12.0139 59.2615 14.1336 59.6781 16.2732 59.6714H25.1452V50.2079C25.9707 49.8922 26.7632 49.496 27.5111 49.0249C27.5146 49.0261 27.5111 59.6714 27.5111 59.6714H37.566V44.2932L43.8243 54.7302L49.9868 44.2932V59.6714H60.0418V27.1406H49.9868L43.8243 38.6399ZM31.5431 48.7186C30.0828 48.398 28.6597 47.9065 27.3443 47.189C27.3159 47.1736 26.9385 47.48 26.8906 47.5126C24.3307 49.2402 20.899 49.9831 17.8985 49.1119C17.1018 48.8806 16.2649 48.5328 15.5622 48.0892C14.2775 47.2807 13.2567 46.0386 12.7841 44.5889C11.4852 40.6042 14.4219 36.0742 19.3429 34.4713C20.2925 34.1597 21.2791 33.9751 22.2772 33.9224C23.7215 33.8485 25.1819 34.0626 26.5245 34.6103C27.8476 35.1509 29.1187 36.0588 29.8899 37.2819C30.8026 38.7391 31.1145 40.4933 30.76 42.1757C30.6813 42.543 30.5624 42.9293 30.3939 43.2658C30.2182 43.6148 29.9568 43.9679 29.913 44.3659C29.8184 45.2188 30.508 46.054 30.8416 46.7365C31.1095 47.2831 31.5123 47.7562 31.7513 48.3175C31.7637 48.3471 31.9039 48.7943 31.898 48.7931C31.7791 48.7694 31.6614 48.744 31.5431 48.7186Z" fill="#FF562D"/>
</svg>
